{"title":"Adele - Hello [1080p]","uid":12673668,"size":108838787,"categoryP":"video","categoryS":"music_videos","magnet":"?xt=urn:btih:992a2f1597422380358393eb94c92b2fa2a918a7&amp;dn=Adele+-+Hello+%5B1080p%5D&amp;tr=udp%3A%2F%2Ftracker.leechers-paradise.org%3A6969&amp;tr=udp%3A%2F%2Fzer0day.ch%3A1337&amp;tr=udp%3A%2F%2Fopen.demonii.com%3A1337&amp;tr=udp%3A%2F%2Ftracker.coppersurfer.tk%3A6969&amp;tr=udp%3A%2F%2Fexodus.desync.com%3A6969","seeders":1,"leechers":2,"uploader":"MusicVideos-HQ","files":1,"time":1446485019,"description":"Capturas: http://i.imgur.com/YjiIttM.jpg\r\n\r\n\r\nGeneral\r\n\r\nFormat                         : MPEG-4\r\nFormat profile                 : Base Media\r\nCodec ID                       : isom\r\nFile size                      : 104 MiB\r\nDuration                       : 6mn 6s\r\nOverall bit rate               : 2 373 Kbps\r\nWriting application            : Lavf55.33.100\r\n\r\nVideo\r\nID                             : 1\r\nFormat                         : AVC\r\nFormat/Info                    : Advanced Video Codec\r\nFormat profile                 :   \r\nFormat settings, CABAC         : Yes\r\nFormat settings, ReFrames      : 3 frames\r\nCodec ID                       : avc1\r\nCodec ID/Info                  : Advanced Video Coding\r\nDuration                       : 6mn 6s\r\nBit rate                       : 2 241 Kbps\r\nWidth                          : 1 920 pixels\r\nHeight                         : 1 080 pixels\r\nDisplay aspect ratio           : 16:9\r\nFrame rate mode                : Variable\r\nFrame rate                     : 23.976 fps\r\nMinimum frame rate             : 23.974 fps\r\nMaximum frame rate             : 90 000.000 fps\r\nColor space                    : YUV\r\nChroma subsampling             : 4:2:0\r\nBit depth                      : 8 bits\r\nScan type                      : Progressive\r\nBits/(Pixel*Frame)             : 0.045\r\nStream size                    : 98.0 MiB (94%)\r\n\r\nAudio\r\nID                             : 2\r\nFormat                         : AAC\r\nFormat/Info                    : Advanced Audio Codec\r\nFormat profile                 : LC\r\nCodec ID                       : 40\r\nDuration                       : 6mn 6s\r\nBit rate mode                  : Constant\r\nBit rate                       : 126 Kbps\r\nChannel(s)                     : 2 channels\r\nChannel positions              : Front: L R\r\nSampling rate                  : 44.1 KHz\r\nCompression mode               : Lossy\r\nStream size                    : 5.49 MiB (5%)","torrent":{"xt":"urn:btih:992a2f1597422380358393eb94c92b2fa2a918a7","amp;dn":"Adele+-+Hello+%5B1080p%5D","amp;tr":["udp%3A%2F%2Ftracker.leechers-paradise.org%3A6969","udp%3A%2F%2Fzer0day.ch%3A1337","udp%3A%2F%2Fopen.demonii.com%3A1337","udp%3A%2F%2Ftracker.coppersurfer.tk%3A6969","udp%3A%2F%2Fexodus.desync.com%3A6969"],"infoHash":"992a2f1597422380358393eb94c92b2fa2a918a7","infoHashBuffer":{"type":"Buffer","data":[153,42,47,21,151,66,35,128,53,131,147,235,148,201,43,47,162,169,24,167]},"announce":[],"urlList":[]}}